<?xml version="1.0" encoding="utf-8"?>
<!-- Generator: Adobe Illustrator 21.0.2, SVG Export Plug-In . SVG Version: 6.00 Build 0)  -->
<svg version="1.1" id="Layer_1" xmlns="http://www.w3.org/2000/svg" xmlns:xlink="http://www.w3.org/1999/xlink" x="0px" y="0px"
	 viewBox="0 0 365.5 358" style="enable-background:new 0 0 365.5 358;" xml:space="preserve">
<style type="text/css">
	.st0{fill:none;stroke:#000000;stroke-width:4.9748;stroke-linecap:round;stroke-linejoin:round;stroke-miterlimit:10;}
	.st1{fill:#FFFFFF;stroke:#000000;stroke-width:4.9748;stroke-linecap:round;stroke-linejoin:round;stroke-miterlimit:10;}
	.st2{fill:none;stroke:#000000;stroke-width:9.5003;stroke-linecap:round;stroke-linejoin:round;stroke-miterlimit:10;}
	.st3{fill:#FFFFFF;stroke:#000000;stroke-width:9.5003;stroke-linecap:round;stroke-linejoin:round;stroke-miterlimit:10;}
</style>
<g>
	<g>
		<circle class="st0" cx="1564" cy="357" r="68.7"/>
		<line class="st0" x1="1564" y1="288.3" x2="1564" y2="424.3"/>
		<line class="st0" x1="1612.1" y1="308.3" x2="1515.9" y2="404.4"/>
		<line class="st0" x1="1632" y1="356.3" x2="1496" y2="356.3"/>
		<line class="st0" x1="1612.1" y1="404.4" x2="1515.9" y2="308.3"/>
	</g>
	<circle class="st1" cx="1564" cy="357" r="8.8"/>
</g>
<g>
	<rect x="136" y="14.5" class="st2" width="41.6" height="328.9"/>
	<path class="st3" d="M242.2,18.5c-25,23.5-65.1,38.8-110.3,38.8c-10.8,0-31.4-2.5-31.4-2.5v71.4v0.6c10.1-1.7,20.6-2.5,31.4-2.5
		c45.2,0,85.3,15.2,110.3,38.8c0,0,19.3-8.7,22.5-68.9C268.4,23.3,242.2,18.5,242.2,18.5z"/>
</g>
</svg>
