<?xml version="1.0" encoding="utf-8"?>
<!-- Generator: Adobe Illustrator 21.0.2, SVG Export Plug-In . SVG Version: 6.00 Build 0)  -->
<svg version="1.1" id="Layer_1" xmlns="http://www.w3.org/2000/svg" xmlns:xlink="http://www.w3.org/1999/xlink" x="0px" y="0px"
	 viewBox="0 0 365.5 358" style="enable-background:new 0 0 365.5 358;" xml:space="preserve">
<style type="text/css">
	.st0{fill:#010101;}
</style>
<g>
	<path class="st0" d="M95,30c17.3-17.3,45.5-17.3,62.9,0.1c8.9,8.9,13.3,20.7,13.1,32.4l0.5,101.9l-103.7-0.5
		c-11.1-0.3-22.1-4.6-30.6-13.1c-17.4-17.4-17.5-45.6-0.1-62.9c13-13,32.2-16.2,48.4-9.6C78.7,62.3,81.9,43,95,30 M89.7,24.7
		C78.2,36.3,73,52.3,75,68c-15.7-2-31.7,3.1-43.2,14.7c-20.2,20.2-20.1,53.1,0.2,73.4c9.5,9.5,22.2,15,35.7,15.3l103.8,0.5l7.5,0
		l0-7.5l-0.5-101.8c0.2-14.1-5.2-27.6-15.3-37.7C142.8,4.6,109.9,4.5,89.7,24.7L89.7,24.7z"/>
	<path class="st0" d="M270.6,30c13,13,16.2,32.3,9.5,48.3c16.2-6.7,35.3-3.5,48.4,9.6c17.4,17.4,17.3,45.5-0.1,62.9
		c-8.5,8.5-19.5,12.8-30.6,13.1l-103.7,0.5l0.5-101.9c-0.2-11.7,4.1-23.5,13.1-32.4C225.1,12.7,253.3,12.7,270.6,30 M275.8,24.7
		c-20.2-20.2-53.1-20.1-73.4,0.2c-10.1,10.1-15.5,23.6-15.3,37.7l-0.5,101.8l0,7.5l7.5,0l103.8-0.5c13.5-0.3,26.2-5.7,35.7-15.3
		c20.3-20.3,20.4-53.2,0.2-73.4c-11.5-11.5-27.5-16.7-43.2-14.7C292.6,52.3,287.4,36.3,275.8,24.7L275.8,24.7z"/>
	<path class="st0" d="M95,320.5c-13-13-16.2-32.3-9.5-48.3c-16.2,6.7-35.3,3.5-48.4-9.6c-17.4-17.4-17.3-45.5,0.1-62.9
		c8.5-8.5,19.5-12.8,30.6-13.1l103.7-0.5L171,288c0.2,11.7-4.1,23.5-13.1,32.4C140.5,337.8,112.3,337.9,95,320.5 M89.7,325.8
		c20.2,20.2,53.1,20.1,73.4-0.2c10.1-10.1,15.5-23.6,15.3-37.7l0.5-101.8l0-7.5l-7.5,0l-103.8,0.5c-13.5,0.3-26.2,5.7-35.7,15.3
		c-20.3,20.3-20.4,53.2-0.2,73.4c11.5,11.5,27.5,16.7,43.2,14.7C73,298.3,78.2,314.3,89.7,325.8L89.7,325.8z"/>
	<path class="st0" d="M270.6,320.5c-17.3,17.3-45.5,17.3-62.9-0.1c-8.9-8.9-13.3-20.7-13.1-32.4l-0.5-101.9l103.7,0.5
		c11.1,0.3,22.1,4.6,30.6,13.1c17.4,17.4,17.5,45.6,0.1,62.9c-13,13-32.2,16.2-48.4,9.6C286.8,288.3,283.6,307.5,270.6,320.5
		 M275.8,325.8c11.5-11.5,16.7-27.5,14.7-43.2c15.7,2,31.7-3.1,43.2-14.7c20.2-20.2,20.1-53.1-0.2-73.4c-9.5-9.5-22.2-15-35.7-15.3
		l-103.8-0.5l-7.5,0l0,7.5l0.5,101.8c-0.2,14.1,5.2,27.6,15.3,37.7C222.7,345.9,255.7,346,275.8,325.8L275.8,325.8z"/>
</g>
</svg>
