<?xml version="1.0" encoding="utf-8"?>
<!-- Generator: Adobe Illustrator 21.0.2, SVG Export Plug-In . SVG Version: 6.00 Build 0)  -->
<svg version="1.1" id="Layer_1" xmlns="http://www.w3.org/2000/svg" xmlns:xlink="http://www.w3.org/1999/xlink" x="0px" y="0px"
	 viewBox="0 0 365.5 358" style="enable-background:new 0 0 365.5 358;" xml:space="preserve">
<style type="text/css">
	.st0{fill:none;stroke:#010101;stroke-width:9.5095;stroke-linecap:round;stroke-linejoin:round;stroke-miterlimit:10;}
	.st1{fill:none;stroke:#010101;stroke-width:7.5344;stroke-linecap:round;stroke-linejoin:round;stroke-miterlimit:10;}
</style>
<g>
	<g>
		<path class="st0" d="M182.8,221"/>
		<path class="st0" d="M256.9,246c0,0-33.2,41.3-74.1,41.3S108.7,246,108.7,246s33.2-41.3,74.1-41.3S256.9,246,256.9,246z"/>
		<circle class="st0" cx="182.8" cy="245.8" r="23.1"/>
	</g>
	<path class="st1" d="M269.4,161.5V70.1c0-17-13.8-30.8-30.8-30.8c-10.8,0-20.2,5.5-25.7,13.9v-12c0-17-13.8-30.8-30.8-30.8
		s-30.8,13.8-30.8,30.8v12c-5.5-8.4-15-13.9-25.7-13.9c-17,0-30.8,13.8-30.8,30.8v91.5c-14,0.6-40,5-53.4,29.1c0,0,37.7-1.3,44,38.9
		c6.3,40.2-10,118,81.6,118h31.4c91.7,0,75.3-77.9,81.6-118s44-38.9,44-38.9C310.3,165.8,283,161.9,269.4,161.5z"/>
</g>
</svg>
