<?xml version="1.0" encoding="utf-8"?>
<!-- Generator: Adobe Illustrator 21.0.2, SVG Export Plug-In . SVG Version: 6.00 Build 0)  -->
<svg version="1.1" id="Layer_1" xmlns="http://www.w3.org/2000/svg" xmlns:xlink="http://www.w3.org/1999/xlink" x="0px" y="0px"
	 viewBox="0 0 365.5 358" style="enable-background:new 0 0 365.5 358;" xml:space="preserve">
<style type="text/css">
	.st0{fill:none;stroke:#010101;stroke-width:9.2334;stroke-linecap:round;stroke-linejoin:round;stroke-miterlimit:10;}
</style>
<path class="st0" d="M246.5,57c0,0,109.7,175.5-51.5,209.6c-2.1,0.4-8.2,0.6-8.2,0.6c-3.4,0-6.8-0.4-10.2-1.1
	C18.8,230.8,127.4,57,127.4,57V17.1H56.8v40l41.8,0.3l3.7-0.1c-36,34.4-60.9,88.1-60.9,136.4c0,80.9,69.5,148.1,148.1,148.1
	S332,276.3,332,195.4c0-49.3-24.6-103.5-61.6-138.3H316v-40h-70.7V57H246.5z"/>
</svg>
