<?xml version="1.0" encoding="utf-8"?>
<!-- Generator: Adobe Illustrator 21.0.2, SVG Export Plug-In . SVG Version: 6.00 Build 0)  -->
<svg version="1.1" id="Layer_1" xmlns="http://www.w3.org/2000/svg" xmlns:xlink="http://www.w3.org/1999/xlink" x="0px" y="0px"
	 viewBox="0 0 365.5 358" style="enable-background:new 0 0 365.5 358;" xml:space="preserve">
<style type="text/css">
	.st0{fill:#010101;stroke:#010101;stroke-width:4.7932;stroke-miterlimit:10;}
	.st1{fill:none;stroke:#010101;stroke-width:13.1051;stroke-linecap:round;stroke-linejoin:round;stroke-miterlimit:10;}
</style>
<g>
	<path class="st0" d="M219.2,13.9c21.8,0,39.5,19.8,39.5,44.2c0,12.5-4.7,23.8-12.2,31.9l-59.1,66.5c-2.5,2.8-6.9,2.8-9.4,0
		l-60.2-67.7c-6.8-7.9-11-18.7-11-30.6c0-24.4,17.7-44.2,39.5-44.2c12.7,0,24.1,6.7,31.3,17.2c2.5,3.6,7.8,3.6,10.3,0
		C195.2,20.6,206.5,13.9,219.2,13.9 M219.2,6.5c-12.1,0-23.4,5.3-31.9,14.3c-2.5,2.7-6.7,2.7-9.2,0c-8.4-9-19.7-14.3-31.9-14.3
		c-25.4,0-46.1,23.1-46.1,51.6c0,13.4,4.6,26,12.9,35.7l65,73.1h0c2.5,2.8,6.9,2.8,9.4,0l0,0l63.8-71.7c9-9.7,14.1-22.9,14.1-37.1
		C265.3,29.6,244.6,6.5,219.2,6.5L219.2,6.5z"/>
	<line class="st1" x1="182.6" y1="163.8" x2="182.6" y2="347.2"/>
	<line class="st1" x1="182.6" y1="272.5" x2="228.4" y2="272.5"/>
	<line class="st1" x1="182.6" y1="319.7" x2="254.7" y2="319.7"/>
</g>
</svg>
