<?xml version="1.0" encoding="utf-8"?>
<!-- Generator: Adobe Illustrator 21.0.2, SVG Export Plug-In . SVG Version: 6.00 Build 0)  -->
<svg version="1.1" id="Layer_1" xmlns="http://www.w3.org/2000/svg" xmlns:xlink="http://www.w3.org/1999/xlink" x="0px" y="0px"
	 viewBox="0 0 365.5 358" style="enable-background:new 0 0 365.5 358;" xml:space="preserve">
<style type="text/css">
	.st0{stroke:#000000;stroke-width:2.4232;stroke-miterlimit:10;}
</style>
<g>
	<g>
		<path class="st0" d="M234.7,188.6c-0.2,0-0.4,0.1-0.7,0.1c-1.6,0.1-3.1-0.8-3.9-2.3l-27.5-51.9l-58.4-6.8c-1.6-0.2-3-1.3-3.5-2.8
			c-0.5-1.5-0.2-3.2,1-4.4l40.9-42.2L171,20.6c-0.3-1.6,0.3-3.2,1.6-4.2c1.3-1,3-1.2,4.5-0.5l52.8,25.9L281.1,13
			c1.4-0.8,3.2-0.7,4.5,0.2c1.3,0.9,2,2.5,1.8,4.1l-8.3,58.2l43.3,39.8c1.2,1.1,1.7,2.8,1.2,4.4c-0.5,1.6-1.6,2.6-3.4,3l-57.9,10.1
			l-24.5,53.4C237.3,187.4,236.1,188.3,234.7,188.6z M153.9,120.2l52,6c1.4,0.2,2.6,1,3.3,2.2l24.5,46.2l21.8-47.6
			c0.6-1.3,1.7-2.2,3.2-2.4l51.6-9l-38.5-35.4c-1-1-1.5-2.4-1.3-3.8l7.4-51.8l-45.6,25.7c-1.2,0.7-2.7,0.7-4,0.1l-47-23l10.3,51.3
			c0.3,1.4-0.1,2.8-1.1,3.8L153.9,120.2z"/>
	</g>
	<g>
		<g>
			<path class="st0" d="M126.7,245.6"/>
		</g>
	</g>
	<g>
		<g>
			<path class="st0" d="M163.3,192"/>
		</g>
		<g>
			<path class="st0" d="M103.9,345.5c-2.2,0.4-4.3-0.9-4.9-3.1l-11.2-39.9l-41.3,4.1c-2.4,0.2-4.4-1.5-4.7-3.8
				c-0.2-2.3,1.5-4.4,3.8-4.7l44.9-4.4c2.1-0.2,4,1.1,4.5,3.1l12.1,43.4c0.6,2.3-0.7,4.6-3,5.3C104.1,345.5,104,345.5,103.9,345.5z"
				/>
		</g>
	</g>
	<g>
		<path class="st0" d="M140.1,284.8c-0.3,0.1-0.7,0.1-1,0.1c-1.8-0.1-3.4-1.4-3.9-3.1l-9.6-34.5l-35.7,3.5c-1.8,0.2-3.6-0.8-4.3-2.5
			c-0.8-1.7-0.4-3.6,1-4.9l102.6-96.5c1.5-1.4,3.7-1.5,5.3-0.4c1.7,1.1,2.3,3.3,1.6,5.1l-52.7,130.6
			C142.7,283.6,141.5,284.6,140.1,284.8z M101.5,241l26.8-2.6c2.1-0.2,4,1.1,4.5,3.1l7.2,25.9l40.7-100.9L101.5,241z"/>
	</g>
</g>
</svg>
