<?xml version="1.0" encoding="utf-8"?>
<!-- Generator: Adobe Illustrator 21.0.2, SVG Export Plug-In . SVG Version: 6.00 Build 0)  -->
<svg version="1.1" id="Layer_1" xmlns="http://www.w3.org/2000/svg" xmlns:xlink="http://www.w3.org/1999/xlink" x="0px" y="0px"
	 viewBox="0 0 223 248" style="enable-background:new 0 0 223 248;" xml:space="preserve">
<style type="text/css">
	.st0{fill:none;stroke:#010101;stroke-width:6.5935;stroke-linecap:round;stroke-linejoin:round;stroke-miterlimit:10;}
	.st1{fill:#010101;}
	.st2{fill:none;stroke:#010101;stroke-width:5.2748;stroke-linecap:round;stroke-linejoin:round;stroke-miterlimit:10;}
</style>
<g>
	<circle class="st0" cx="111.7" cy="125" r="55.4"/>
	<g>
		<path class="st1" d="M116.9,150.5v9.9h-9.4v-9.8c-7.6-2.1-12.4-7.3-12.4-15.3h9.9c0.2,3.7,2.8,6.4,6.7,6.4c3.7,0,6.7-2.7,6.7-6.4
			c0-5.2-4.2-6.1-8.3-7.3c-7.5-2.2-12.8-6.6-12.8-14.8c0-6.6,3.8-12.1,10.3-13.9v-9.6h9.4v9.7c5.8,1.9,9.1,6.9,9.7,12.8h-9.4
			c-0.7-2.6-2.1-4.6-5.1-4.6c-2.8,0-4.9,2.4-4.9,5.2c0,3.6,2.5,4.7,5.5,5.8c1.3,0.4,2.6,0.9,3.9,1.3c7.5,2.3,11.8,7,11.8,15.3
			C128.3,142.5,124,148.5,116.9,150.5z"/>
	</g>
	<g>
		<path class="st0" d="M94.9,21.6c-49.9,8-88,51.3-88,103.5s38.1,95.4,88,103.5"/>
		<path class="st0" d="M128.5,228.5c49.9-8,88-51.3,88-103.5s-38.1-95.4-88-103.5"/>
	</g>
	<g>
		<line class="st0" x1="78.6" y1="6.3" x2="99" y2="21.4"/>
		<line class="st0" x1="87.2" y1="44.1" x2="100.1" y2="22.1"/>
	</g>
	<g>
		<line class="st2" x1="146.3" y1="243.2" x2="123.8" y2="231.3"/>
		<line class="st2" x1="132" y1="207.1" x2="122.6" y2="230.8"/>
	</g>
</g>
</svg>
