<?xml version="1.0" encoding="utf-8"?>
<!-- Generator: Adobe Illustrator 21.0.2, SVG Export Plug-In . SVG Version: 6.00 Build 0)  -->
<svg version="1.1" id="Layer_1" xmlns="http://www.w3.org/2000/svg" xmlns:xlink="http://www.w3.org/1999/xlink" x="0px" y="0px"
	 viewBox="0 0 221 223" style="enable-background:new 0 0 221 223;" xml:space="preserve">
<style type="text/css">
	.st0{fill:#FFFFFF;stroke:#010101;stroke-width:5.1975;stroke-miterlimit:10;}
	.st1{fill:none;stroke:#010101;stroke-width:5.1975;stroke-miterlimit:10;}
</style>
<g>
	<path class="st0" d="M134,91H86.5c-2.9,0-5.3-2.4-5.3-5.3V71.4c0-6.3,5.1-11.3,11.3-11.3H128c6.3,0,11.3,5.1,11.3,11.3v14.3
		C139.3,88.6,136.9,91,134,91z"/>
	<circle class="st0" cx="110.2" cy="46.4" r="17.9"/>
</g>
<g>
	<g>
		<path class="st1" d="M91.5,130.7H44c-2.9,0-5.3-2.4-5.3-5.3v-14.3c0-6.3,5.1-11.3,11.3-11.3h35.5c6.3,0,11.3,5.1,11.3,11.3v14.3
			C96.9,128.3,94.5,130.7,91.5,130.7z"/>
		<circle class="st0" cx="67.8" cy="86.2" r="17.9"/>
	</g>
	<g>
		<path class="st1" d="M172,130.7h-47.5c-2.9,0-5.3-2.4-5.3-5.3v-14.3c0-6.3,5.1-11.3,11.3-11.3H166c6.3,0,11.3,5.1,11.3,11.3v14.3
			C177.3,128.3,174.9,130.7,172,130.7z"/>
		<circle class="st0" cx="148.2" cy="86.2" r="17.9"/>
	</g>
</g>
<g>
	<path class="st0" d="M131.7,145.5H84.2c-2.9,0-5.3-2.4-5.3-5.3v-14.3c0-6.3,5.1-11.3,11.3-11.3h35.5c6.3,0,11.3,5.1,11.3,11.3v14.3
		C137.1,143.2,134.7,145.5,131.7,145.5z"/>
	<circle class="st0" cx="108" cy="101" r="17.9"/>
</g>
<g>
	<path class="st0" d="M205.9,56.3L205.9,56.3c-5.6,0-10.1,4.5-10.1,10.1v36.4c1-0.4,2.1-0.6,3.2-0.6c6,0,10.8,5.7,10.8,12.7
		c0,2.8-0.8,5.3-2.1,7.4L183.4,144c-0.8,0.7-1.8,1.1-2.8,1.1h-0.2c-1.1,0-1.6-1.4-0.8-2.1l22.4-20.1c4.1-3.6,4.8-10.3,1.3-14.4
		c-3.7-4.4-10.3-4.8-14.5-1l-38.7,34.7c-1.9,1.7-3,4.1-3,6.7v45.9c0,0.8,0.7,1.5,1.5,1.5h32.5c0.8,0,1.5-0.7,1.5-1.5v-18
		c0-2.2,0.8-4.3,2.2-6l28.9-34.5c1.6-1.9,2.4-4.3,2.4-6.7v-7.2V66.5C216.1,60.8,211.5,56.3,205.9,56.3z"/>
	<path class="st0" d="M17.3,54.8L17.3,54.8c5.6,0,10.1,4.5,10.1,10.1v36.4c-1-0.4-2.1-0.6-3.2-0.6c-6,0-10.8,5.7-10.8,12.7
		c0,2,0.4,3.9,1.1,5.6c0.5,1.1,1.2,2.1,2.1,2.9l23.8,21.3c0.3,0.3,0.8,0.5,1.2,0.5l0,0c1.5,0,2.2-1.9,1.1-2.9l-21.5-19.3
		c-4.1-3.6-4.8-10.3-1.3-14.4c3.7-4.4,10.3-4.8,14.5-1l38.7,34.7c1.9,1.7,3,4.1,3,6.7v45.9c0,0.8-0.7,1.5-1.5,1.5H42.1
		c-0.8,0-1.5-0.7-1.5-1.5V172l-30.4-36.4c-2-2.4-3-5.3-3-8.4v-6.3V65C7.2,59.3,11.7,54.8,17.3,54.8z"/>
</g>
</svg>
