<?xml version="1.0" encoding="utf-8"?>
<!-- Generator: Adobe Illustrator 21.0.2, SVG Export Plug-In . SVG Version: 6.00 Build 0)  -->
<svg version="1.1" id="Layer_1" xmlns="http://www.w3.org/2000/svg" xmlns:xlink="http://www.w3.org/1999/xlink" x="0px" y="0px"
	 viewBox="0 0 251 274" style="enable-background:new 0 0 251 274;" xml:space="preserve">
<g>
	<path d="M241.8,142.1c0.4,62.8-51.1,114.6-114.4,115c-63,0.4-114.8-51-115.2-114.4c-0.4-63,51-114.8,114.4-115.2
		C189.7,27.1,241.4,78.5,241.8,142.1z M127.1,37.7C69.5,37.6,22.6,84.4,22.5,142c-0.2,57.7,46.7,104.8,104.4,104.8
		c57.8,0.1,104.7-46.8,104.8-104.7C231.7,84.7,184.7,37.8,127.1,37.7z"/>
	<path d="M143.8,107.5c-14.3,0-28.6,0-42.9,0c-1.6,0-2.6,0.3-3.4,2c-2.4,4.6-6.4,7-11.6,6.9c-5.2,0-9.2-2.4-11.7-6.9
		c-0.9-1.5-1.8-2.1-3.4-2c-1.5,0.1-3.1,0.1-4.7,0c-2.7-0.2-4.6-2.2-4.6-4.7c0.1-2.5,2-4.4,4.7-4.6c0.2,0,0.5,0,0.7,0
		c3.6,0.2,6.2-0.1,8.8-3.9c5.3-7.7,17.1-6.4,21.7,1.9c0.9,1.7,1.9,2,3.6,2c28.5,0,57,0,85.5,0c1,0,2.1,0,3,0.3
		c2.2,0.7,3.4,2.8,3.1,4.9c-0.4,2.3-2.2,3.9-4.8,4c-4.5,0.1-9.1,0-13.6,0C164,107.6,153.9,107.6,143.8,107.5
		C143.8,107.6,143.8,107.6,143.8,107.5z"/>
	<path d="M89.5,138.1c7.7,0,15.3,0,23,0c1.3,0,2-0.3,2.7-1.6c2.4-4.7,6.4-7.3,11.7-7.3c5.4,0,9.5,2.5,12,7.2
		c0.8,1.5,1.7,1.7,3.1,1.7c15.1,0,30.1,0,45.2,0c4.3,0,6.8,3.6,4.8,7c-1.1,1.9-2.9,2.3-5,2.3c-14.8,0-29.7,0-44.5,0
		c-1.8,0-2.9,0.3-3.8,2.1c-2.4,4.5-6.4,6.8-11.5,6.8c-5.2,0-9.2-2.4-11.7-6.9c-0.9-1.7-1.9-2-3.6-2c-15,0.1-30,0.1-45,0
		c-4.2,0-6.6-3.6-4.7-6.9c1-1.8,2.7-2.4,4.7-2.4C74.4,138.1,82,138.1,89.5,138.1z"/>
	<path d="M115.5,176.5c16.2,0,32.5,0,48.7,0c1.6,0,2.5-0.5,3.2-2c1.7-3.4,4.5-5.7,8.2-6.5c5-1,13.8,2.6,15.8,9
		c2.1,6.6-0.6,13.4-6.8,16.3c-6.1,2.9-13.7,0.6-17-5.5c-1-1.8-2.1-2.2-4-2.2c-32,0.1-64,0-96,0c-0.6,0-1.3,0-1.9,0
		c-2.7-0.2-4.7-2.1-4.7-4.6c0-2.6,2-4.6,4.8-4.7c7-0.1,14.1,0,21.1,0C96.4,176.5,106,176.5,115.5,176.5
		C115.5,176.5,115.5,176.5,115.5,176.5z"/>
</g>
</svg>
