<?xml version="1.0" encoding="utf-8"?>
<!-- Generator: Adobe Illustrator 21.0.2, SVG Export Plug-In . SVG Version: 6.00 Build 0)  -->
<svg version="1.1" id="Layer_1" xmlns="http://www.w3.org/2000/svg" xmlns:xlink="http://www.w3.org/1999/xlink" x="0px" y="0px"
	 viewBox="0 0 234 234" style="enable-background:new 0 0 234 234;" xml:space="preserve">
<style type="text/css">
	.st0{fill:none;stroke:#010101;stroke-width:6;stroke-miterlimit:10;}
</style>
<g>
	<line class="st0" x1="147.9" y1="90.1" x2="147.9" y2="178"/>
	<polyline class="st0" points="161.4,175.7 187.3,175.7 139,224 93,178 122.3,178 122.3,61.9 148.8,61.9 99.6,12.8 54.2,58.2 
		77.5,58.2 	"/>
	<line class="st0" x1="92.5" y1="56.2" x2="92.5" y2="144.1"/>
	<path class="st0" d="M117.2,10.2c59.3,0,107.5,48.1,107.5,107.5c0,20.6-5.8,39.8-15.8,56.1h-6.6"/>
	<path class="st0" d="M117.2,225.1C57.9,225.1,9.7,177,9.7,117.6c0-22.9,7.2-44.2,19.4-61.6h6.5"/>
</g>
</svg>
