<?xml version="1.0" encoding="utf-8"?>
<!-- Generator: Adobe Illustrator 21.0.2, SVG Export Plug-In . SVG Version: 6.00 Build 0)  -->
<svg version="1.1" id="Layer_1" xmlns="http://www.w3.org/2000/svg" xmlns:xlink="http://www.w3.org/1999/xlink" x="0px" y="0px"
	 viewBox="0 0 251 274" style="enable-background:new 0 0 251 274;" xml:space="preserve">
<style type="text/css">
	.st0{fill:#FFFFFF;stroke:#191919;stroke-width:5.7623;stroke-linecap:round;stroke-linejoin:round;stroke-miterlimit:10;}
	.st1{fill:none;stroke:#191919;stroke-width:5.7623;stroke-linecap:round;stroke-linejoin:round;stroke-miterlimit:10;}
	.st2{fill:#FFFFFF;stroke:#191919;stroke-width:5.3368;stroke-linecap:round;stroke-linejoin:round;stroke-miterlimit:10;}
</style>
<g>
	<path class="st0" d="M113.6,115l-84.5-0.4L6.9,67.4c-0.9-1.9,0.1-4.1,2-4.7l89.3-29.9L113.6,115z"/>
	<polygon class="st0" points="226.8,113.5 125.9,149.2 29.1,114.7 82.5,96.2 112.8,74.3 	"/>
	<path class="st0" d="M226.8,113.5l14.4-45.2c0.6-1.8-0.4-3.7-2.2-4.3l-91.2-27.9c-1.7-0.6-3.6,0.2-4.3,1.9l-17.7,43.2L226.8,113.5z
		"/>
	<path class="st1" d="M221.4,236.2l-93.2,32.1c-1.5,0.5-3.1,0.5-4.6,0l-87.2-32c-4.1-1.5-6.9-5.5-6.9-9.9V115l96.4,33.3l100.9-34.9
		l1.6,112.8C228.5,230.7,225.6,234.7,221.4,236.2z"/>
	<path class="st0" d="M29.1,114.7l96.8,33.9l-21.5,45.9c-1.4,2.9-4.8,4.3-7.9,3.2l-83.6-31.1c-3.4-1.2-5.1-5.1-3.7-8.5L29.1,114.7z"
		/>
	<path class="st0" d="M226.8,113.5l-100.6,34.9l22.1,46.1c1.4,2.9,4.8,4.3,7.9,3.2l83.6-31.1c3.4-1.2,5.1-5.1,3.7-8.5L226.8,113.5z"
		/>
	<path class="st2" d="M98.6,85.6l0.2,20.3L34.1,58.3c-1.7-1.3-1.7-3.8,0-5.1L98,4.5l0.2,21.3l9.6,3.9c8.3,3.3,16.4,8,24,13.9
		c30.7,23.9,43.2,61,32.4,89.7c-1.4-20.7-19.4-40.1-45-46.2c-6.3-1.5-12.6-2.1-18.7-1.9L98.6,85.6z"/>
</g>
</svg>
