<?xml version="1.0" encoding="utf-8"?>
<!-- Generator: Adobe Illustrator 21.0.2, SVG Export Plug-In . SVG Version: 6.00 Build 0)  -->
<svg version="1.1" id="Layer_1" xmlns="http://www.w3.org/2000/svg" xmlns:xlink="http://www.w3.org/1999/xlink" x="0px" y="0px"
	 viewBox="0 0 246 236" style="enable-background:new 0 0 246 236;" xml:space="preserve">
<style type="text/css">
	.st0{fill:none;stroke:#010101;stroke-width:6;stroke-linecap:round;stroke-linejoin:round;stroke-miterlimit:10;}
</style>
<g>
	<circle class="st0" cx="123.6" cy="132.5" r="22.6"/>
	<path class="st0" d="M75.5,100.4c26.6-26.6,69.6-26.6,96.2,0"/>
	<path class="st0" d="M49.2,74.1C90.3,33,156.9,33,198,74.1"/>
	<path class="st0" d="M24.4,49.3C79.2-5.5,168-5.5,222.8,49.3"/>
	<circle class="st0" cx="190.4" cy="146.6" r="18.6"/>
	<path class="st0" d="M168.2,228.5v-19c0-22.1-17.9-40-40-40H119c-22.1,0-40,17.9-40,40v19H168.2z"/>
	<path class="st0" d="M193.2,177h-5.5c-10,0-18.9,4.3-25.1,11.1c3.5,6,5.6,12.9,5.6,20.4v16.9H227v-14.6
		C227,192.2,211.9,177,193.2,177z"/>
	<g>
		<circle class="st0" cx="55.8" cy="146.6" r="18.6"/>
		<path class="st0" d="M53.1,177h5.5c10,0,18.9,4.3,25.1,11.1c-3.5,6-5.6,12.9-5.6,20.4v16.9H19.2v-14.6
			C19.2,192.2,34.4,177,53.1,177z"/>
	</g>
</g>
</svg>
